<?xml version="1.0" encoding="UTF-8"?>
<svg id="Layer_1" data-name="Layer 1" xmlns="http://www.w3.org/2000/svg" viewBox="0 0 978.62 761.94">
  <path d="M180,215.2c-.47,6.1-.42,12.29-.42,18.44v254.91H.08V246.43C.08,203.55-1.91,162.77,14.26,122.23,28.83,85.67,53.07,53.21,85.51,30.64,139.42-6.86,216.13-6.33,272.27,24.7c20.73,11.46,39.45,26.56,55.9,43.55C372.39,17.5,441.17-7.05,507.54,1.76c54.28,7.21,100.02,51.88,127.69,96.58,2.28,3.68,4.59,7.55,8.26,9.84,8.15,5.08,24.98-4.19,33.74-5.85,8.72-1.65,17.68-4.1,26.54-4.86,45.51-3.88,92.26,2.37,133.73,22.12,60.09,28.61,101.03,79.51,126.24,140.01,21.07,50.58,17.94,107.39,1.95,158.85-8.97,28.87-21.32,58.75-40.55,82.3-28.79,35.25-66.23,65.75-109.77,81.41-40.49,14.56-86.26,13.14-128.43,8.92v-148.43c0-14.79-.57-29.83,.09-44.55,2.08,1.5,4.53,3.02,7.04,4,35.77,14.03,78.8,8.54,96.28-29.66,10.96-23.96,5.88-53.96-11.5-73.57-23.72-26.77-69.22-30.64-96.1-7.02-13.51,11.88-20.47,28.88-23.15,46.34v423.74h-181.5V299.97c0-21.22,.54-42.44,.7-63.66,.16-21.47,4.77-50.15-20.28-60.08-23.24-9.22-38.12,19.91-38.12,38.95V485.14H239.29V247.1c0-16.55,3.65-35.76-3.49-51.3-5.42-11.82-19.98-21.9-33.56-18.7-16.03,3.77-21.15,23.93-22.24,38.11Z"/>
</svg>