<?xml version="1.0" encoding="UTF-8"?><svg id="a" xmlns="http://www.w3.org/2000/svg" viewBox="0 0 400.83 400.83"><defs><style>.b{fill:none;stroke-width:23px;}.b,.c{stroke:#fff;stroke-miterlimit:10;}.c{fill:#fff;}</style></defs><circle class="b" cx="200.42" cy="200.42" r="188.92"/><polygon class="c" points="95.86 262.32 120.08 262.32 120.08 173.36 158.28 225.99 163.9 226.32 228.3 139.79 200.42 139.79 162.08 191.31 123.93 139.79 94.54 139.79 95.86 262.32"/><path class="c" d="M232.92,161.25l16.18-21.47s27.08-3.3,42.28,3.63c0,0,25.1,11.23,23.78,41.94,0,0-1.93,37.98-41.09,40.62h-47.42v36.33h-23.78v-57.47l69.69-.33s20.81-1.65,19.82-22.79c0,0,.33-20.15-21.14-20.81l-38.31,.33Z"/><rect class="c" x="95.54" y="141.98" width="25.1" height="223.82"/><polygon class="c" points="232.92 161.25 200.42 161.25 216.67 139.79 252.19 139.49 232.92 161.25"/><rect class="c" x="202.87" y="204.85" width="23.78" height="74.64"/></svg>